<?xml version="1.0" standalone="no"?>
<!DOCTYPE svg PUBLIC "-//W3C//DTD SVG 20010904//EN"
 "http://www.w3.org/TR/2001/REC-SVG-20010904/DTD/svg10.dtd">
<svg version="1.0" xmlns="http://www.w3.org/2000/svg"
 width="200.000000pt" height="200.000000pt" viewBox="0 0 200.000000 200.000000"
 preserveAspectRatio="xMidYMid meet">

<defs>
    <linearGradient id="bgGradient" x1="0%" y1="0%" x2="100%" y2="100%">
      <stop offset="0%" style="stop-color:#4A90E2;stop-opacity:1" />
      <stop offset="100%" style="stop-color:#357ABD;stop-opacity:1" />
    </linearGradient>
</defs>

<!-- Fundo azul com gradiente -->
<rect width="200" height="200" fill="url(#bgGradient)"/>

<!-- Mãos em branco -->
<g transform="translate(0.000000,200.000000) scale(0.100000,-0.100000)"
fill="#FFFFFF" stroke="none">
<path d="M0 1000 l0 -1000 1000 0 1000 0 0 1000 0 1000 -1000 0 -1000 0 0
-1000z m879 680 l134 -159 135 160 c74 87 141 159 147 159 7 0 20 -9 30 -20
15 -17 31 -20 105 -20 150 0 250 -29 329 -96 33 -27 71 -91 71 -119 0 -28 -28
-15 -39 18 -16 46 -65 91 -136 123 -53 25 -75 29 -183 32 l-122 4 -138 -102
c-75 -57 -151 -114 -168 -127 l-31 -23 -168 126 -168 126 -127 -4 c-119 -3
-131 -6 -194 -37 -69 -34 -126 -94 -126 -133 0 -10 -7 -18 -15 -18 -19 0 -19
33 0 69 23 45 102 108 164 132 43 16 86 23 183 27 108 4 130 8 144 23 9 11 22
19 28 19 6 0 71 -72 145 -160z m-56 -297 c9 -11 24 -74 38 -163 21 -137 40
-194 54 -159 3 8 18 77 33 154 25 125 30 140 49 143 13 2 25 -4 30 -15 5 -10
5 -90 0 -186 l-10 -167 -50 -15 c-28 -8 -63 -15 -77 -15 -76 0 -107 -86 -49
-134 38 -32 64 -39 129 -34 27 1 50 0 50 -3 0 -4 -34 -54 -75 -113 l-76 -106
-60 0 c-53 0 -64 4 -88 28 -30 30 -53 96 -77 220 -8 41 -17 79 -21 85 -3 7
-37 60 -75 118 -71 110 -79 133 -52 143 21 8 30 0 111 -95 69 -83 100 -101 89
-51 -4 15 -32 82 -62 149 -31 67 -53 127 -49 132 3 6 15 11 25 11 14 0 35 -31
81 -120 81 -157 89 -164 88 -69 0 41 -4 112 -9 159 -6 71 -5 88 8 103 8 9 18
17 22 17 4 0 14 -8 23 -17z m529 -360 c15 -14 51 -42 80 -63 78 -54 81 -77 26
-232 -42 -119 -43 -128 -48 -273 -5 -136 -7 -150 -24 -153 -30 -6 -37 11 -49
128 -19 175 -37 159 -72 -60 -20 -119 -28 -140 -54 -140 -28 0 -30 17 -15 141
7 63 13 128 13 144 l1 30 -18 -23 c-9 -12 -46 -76 -82 -142 -51 -94 -69 -119
-86 -120 -12 0 -27 7 -34 15 -11 13 -3 38 48 153 58 129 72 172 55 172 -4 0
-56 -48 -115 -107 -92 -92 -111 -106 -126 -97 -9 6 -18 18 -20 26 -2 8 40 72
92 142 131 173 172 259 134 282 -7 4 -47 7 -89 5 -83 -2 -119 10 -119 41 0 13
8 18 28 18 32 0 109 28 212 77 147 71 216 80 262 36z m188 -119 c11 -47 2
-114 -15 -114 -9 0 -11 13 -8 44 3 25 0 59 -6 76 -12 35 -6 59 11 42 5 -5 14
-27 18 -48z m56 -1 c11 -54 8 -101 -7 -119 -19 -24 -30 -2 -18 40 10 36 8 61
-7 100 -4 10 -1 16 9 16 11 0 19 -13 23 -37z m-946 -293 c7 -17 30 -44 52 -61
45 -36 42 -51 -5 -26 -31 17 -68 62 -83 100 -11 31 23 19 36 -13z m-44 -15 c9
-19 29 -46 45 -59 30 -25 36 -41 20 -50 -23 -15 -101 85 -101 129 0 26 18 16
36 -20z"/>
</g>
</svg>